<?xml version="1.0" standalone="no"?><!DOCTYPE svg PUBLIC "-//W3C//DTD SVG 1.1//EN" "http://www.w3.org/Graphics/SVG/1.1/DTD/svg11.dtd"><svg t="1612284988917" class="icon" viewBox="0 0 1024 1024" version="1.1" xmlns="http://www.w3.org/2000/svg" p-id="1541" xmlns:xlink="http://www.w3.org/1999/xlink" width="200" height="200"><defs><style type="text/css"></style></defs><path d="M339.43 488.44H233.61a127.29 127.29 0 0 1-127.14-127.15V255.48a127.29 127.29 0 0 1 127.14-127.16h105.82A127.31 127.31 0 0 1 466.6 255.48v105.81c0 70.11-57.05 127.15-127.17 127.15zM233.61 180a75.52 75.52 0 0 0-75.41 75.44v105.85a75.51 75.51 0 0 0 75.41 75.43h105.82a75.51 75.51 0 0 0 75.44-75.43V255.48A75.53 75.53 0 0 0 339.43 180z" fill="#333333" p-id="1542"></path><path d="M715.62 510.37a126.32 126.32 0 0 1-89.91-37.26l-74.83-74.82c-49.58-49.56-49.58-130.23 0-179.82l74.83-74.82c49.55-49.57 130.2-49.58 179.83 0l74.8 74.83c49.58 49.59 49.58 130.26 0 179.82l-74.8 74.82a126.37 126.37 0 0 1-89.92 37.25z m0-352.2a75.2 75.2 0 0 0-53.34 22.05L587.45 255a75.54 75.54 0 0 0 0 106.68l74.83 74.82c28.49 28.49 78.2 28.52 106.68 0l74.81-74.82a75.54 75.54 0 0 0 0-106.68L769 180.22a75.23 75.23 0 0 0-53.38-22.05z" fill="#FFCC07" p-id="1543"></path><path d="M339.43 917.53H233.61a127.29 127.29 0 0 1-127.14-127.15V684.56a127.29 127.29 0 0 1 127.14-127.15h105.82c70.12 0 127.17 57 127.17 127.15v105.82c0 70.11-57.05 127.15-127.17 127.15z m-105.82-308.4a75.51 75.51 0 0 0-75.41 75.43v105.82a75.51 75.51 0 0 0 75.41 75.43h105.82a75.51 75.51 0 0 0 75.44-75.43V684.56a75.51 75.51 0 0 0-75.44-75.43zM768.51 917.53h-105.8c-70.11 0-127.16-57-127.16-127.15V684.56c0-70.11 57.05-127.15 127.16-127.15h105.8c70.11 0 127.16 57 127.16 127.15v105.82c0 70.11-57.05 127.15-127.16 127.15z m-105.8-308.4a75.52 75.52 0 0 0-75.44 75.43v105.82a75.52 75.52 0 0 0 75.44 75.43h105.8A75.51 75.51 0 0 0 844 790.38V684.56a75.51 75.51 0 0 0-75.44-75.43z" fill="#333333" p-id="1544"></path></svg>