<?xml version="1.0" standalone="no"?><!DOCTYPE svg PUBLIC "-//W3C//DTD SVG 1.1//EN" "http://www.w3.org/Graphics/SVG/1.1/DTD/svg11.dtd"><svg t="1612284961189" class="icon" viewBox="0 0 1024 1024" version="1.1" xmlns="http://www.w3.org/2000/svg" p-id="887" xmlns:xlink="http://www.w3.org/1999/xlink" width="200" height="200"><defs><style type="text/css"></style></defs><path d="M798.856 493.33c-14.526 0-26.757 8.464-33.195 20.441h-70.614c-3.191-37.755-17.72-71.974-40.512-99.645l23.617-23.634c1.23 0.16 2.321 0.73 3.596 0.73 16.017 0 29.052-13.059 29.052-29.052s-13.036-29.052-29.052-29.052-29.052 13.059-29.052 29.052c0 1.109 0.515 2.052 0.636 3.132l-23.818 23.833c-27.689-22.753-61.908-37.247-99.651-40.399V281.29c11.986-6.441 20.441-18.684 20.441-33.198 0-21.008-17.105-38.137-38.137-38.137s-38.137 17.129-38.137 38.137c0 14.514 8.455 26.757 20.441 33.198v67.991c-36.969 4.199-70.35 19.249-97.214 42.277l-24.229-24.214c0.127-1.094 0.645-2.058 0.645-3.185 0-15.993-13.036-29.052-29.052-29.052-16.017 0-29.052 13.059-29.052 29.052s13.036 29.052 29.052 29.052c1.269 0 2.357-0.568 3.584-0.727l24.566 24.554c-21.446 27.157-35.035 60.308-38.113 96.735h-75.96c-6.438-11.977-18.669-20.441-33.195-20.441-21.032 0-38.137 17.129-38.137 38.137s17.105 38.137 38.137 38.137c14.526 0 26.757-8.464 33.195-20.441h76.469c4.019 35.718 18.169 68.059 39.873 94.47l-28.094 28.076c-0.807-0.068-1.499-0.47-2.324-0.47-16.017 0-29.052 13.059-29.052 29.052s13.036 29.052 29.052 29.052c16.017 0 29.052-13.059 29.052-29.052 0-1.573-0.657-2.934-0.899-4.442l27.234-27.219c26.397 21.751 58.737 35.952 94.464 40.009v75.561c-11.986 6.441-20.441 18.684-20.441 33.198 0 21.008 17.105 38.137 38.137 38.137s38.137-17.128 38.137-38.137c0-14.514-8.455-26.757-20.441-33.198v-75.017c36.487-3.049 69.694-16.644 96.892-38.119l26.157 26.172c-0.015 0.376-0.216 0.689-0.216 1.068 0 15.993 13.036 29.052 29.052 29.052s29.052-13.059 29.052-29.052-13.036-29.052-29.052-29.052c-2.005 0-3.768 0.757-5.66 1.147l-23.833-23.847c23.058-26.905 38.113-60.349 42.283-97.389h71.122c6.438 11.977 18.669 20.441 33.195 20.441 21.032 0 38.137-17.129 38.137-38.137-0.001-21.011-17.106-38.139-38.138-38.139z m-268.733-25.871c28.05 7.026 49.304 31.282 49.304 61.499 0 9.04-1.922 17.611-5.285 25.427l-44.019-29.957v-56.969z m-17.365 87.95l37.939 25.82c-10.395 7.163-22.28 12.317-35.833 12.317-13.955 0-26.187-5.385-36.756-12.929l34.65-25.208z m-57.513-1.887c-3.135-7.585-4.968-15.854-4.968-24.563 0-28.49 18.814-51.95 44.454-60.515v56.351l-39.486 28.727z m-66.503 48.384c-12.521-21.559-20.228-46.261-20.228-72.947 0-73.825 55.097-134.396 126.216-144.315v46.373c-45.509 9.342-79.846 49.712-79.846 97.942 0 16.493 4.397 31.832 11.501 45.56l-37.643 27.387z m126.122 73.402c-41.301 0-78.495-17.344-105.128-44.951l38.113-27.727c17.77 16.179 41.15 26.308 67.015 26.308 25.915 0 49.345-10.17 67.124-26.417l39.036 26.568c-26.699 28.304-64.268 46.219-106.16 46.219z m126.914-74.896l-38.35-26.098c7.038-13.677 11.391-28.946 11.391-45.356 0-49.895-36.862-91.016-84.696-98.436v-46.37c73.447 7.751 131.066 69.31 131.066 144.806 0 26.081-7.414 50.23-19.411 71.454z m229.59-352.56L512.167 74.911 152.988 247.852 64.27 636.556l248.576 311.72H711.51l248.553-311.72-88.695-388.704zM694.476 912.883H329.88L102.549 627.85l81.148-355.488 328.47-158.178L840.66 272.362l81.124 355.488-227.308 285.033z" fill="#000000" p-id="888"></path></svg>