<?xml version="1.0" standalone="no"?><!DOCTYPE svg PUBLIC "-//W3C//DTD SVG 1.1//EN" "http://www.w3.org/Graphics/SVG/1.1/DTD/svg11.dtd"><svg t="1612284403695" class="icon" viewBox="0 0 1024 1024" version="1.1" xmlns="http://www.w3.org/2000/svg" p-id="8209" xmlns:xlink="http://www.w3.org/1999/xlink" width="200" height="200"><defs><style type="text/css"></style></defs><path d="M452 234.857143q-6.285714 0.571429-8.857143 6T438.285714 246.285714q-2.857143 0.571429-2.857143-2.857143 0-6.857143 10.857143-8.571428h5.714286z m49.714286 8q-2.285714 0.571429-6.571429-3.714286T485.142857 236.571429q13.714286-6.285714 18.285714 1.142857 1.714286 3.428571-1.714285 5.142857zM301.142857 486.857143q-2.285714-0.571429-3.428571 1.714286t-2.571429 7.142857T292 503.428571t-5.714286 7.428572q-5.714286 6.285714-0.571428 6.857143 2.285714 0.571429 7.142857-4t7.142857-10.285715q0.571429-1.714286 1.142857-4t1.142857-3.428571 0.857143-2.571429 0.285714-2.285714v-1.714286l-0.571428-1.428571-1.714286-1.142857z m488.571429 205.142857q0-10.285714-31.428572-24 2.285714-8.571429 4.285715-15.714286t2.857142-14.857143 1.714286-12.285714 0.285714-12.857143-0.571428-11.142857-2-12.571428-2.285714-11.714286-2.857143-14.285714-3.142857-15.142858q-5.714286-27.428571-26.857143-58.857142t-41.142857-42.857143q13.714286 11.428571 32.571428 47.428571 49.714286 92.571429 30.857143 158.857143-6.285714 22.857143-28.571429 24-17.714286 2.285714-22-10.571429t-4.571428-47.714285-6.571429-61.142857q-5.142857-22.285714-11.142857-39.428572t-11.142857-26-8.857143-14-7.428571-8.571428-4.285715-4q-8-35.428571-17.714285-58.857143t-16.857143-32-13.428572-18.857143-8.571428-22.857143q-2.285714-12 3.428571-30.571429t2.571429-28.285714-25.428572-14.285714q-8.571429-1.714286-25.428571-10.285714T525.714286 239.428571q-4.571429-0.571429-6.285715-14.857142t4.571429-29.142858 20.571429-15.428571q21.142857-1.714286 29.142857 17.142857t2.285714 33.142857q-6.285714 10.857143-1.142857 15.142857t17.142857 0.285715q7.428571-2.285714 7.428571-20.571429v-21.142857q-2.857143-17.142857-7.714285-28.571429t-12-17.428571-13.428572-8.571429-15.428571-4.285714q-61.142857 4.571429-50.857143 76.571429 0 8.571429-0.571429 8.571428-5.142857-5.142857-16.857142-6t-18.857143 0.285715-8.857143-2.857143q0.571429-32.571429-9.142857-51.428572t-25.714286-19.428571q-15.428571-0.571429-23.714286 15.714286T386.857143 200.571429q-0.571429 8.571429 2 21.142857t7.428571 21.428571T405.142857 250.857143q5.714286-1.714286 9.142857-8 2.285714-5.142857-4-4.571429-4 0-8.857143-8.285714T396 210.857143q-0.571429-12.571429 5.142857-21.142857t19.428572-8q9.714286 0 15.428571 12t5.428571 22.285714-0.857142 12.571429q-12.571429 8.571429-17.714286 16.571428-4.571429 6.857143-15.714286 13.428572T395.428571 265.714286q-7.428571 8-8.857142 15.428571t4.285714 10.285714q8 4.571429 14.285714 11.142858t9.142857 10.857142 10.571429 7.428572T445.142857 324.571429q26.857143 1.142857 58.285714-8.571429 1.142857-0.571429 13.142858-4t19.714285-6 16.857143-7.428571 12-10q5.142857-8 11.428572-4.571429 2.857143 1.714286 3.714285 4.857143t-1.714285 6.857143T569.142857 301.142857q-11.428571 3.428571-32.285714 12.285714T510.857143 324.571429q-25.142857 10.857143-40 13.142857-14.285714 2.857143-45.142857-1.142857-5.714286-1.142857-5.142857 1.142857t9.714285 10.857143q14.285714 13.142857 38.285715 12.571428 9.714286-0.571429 20.571428-4t20.571429-8 19.142857-10 17.142857-9.714286 14-6.857142 10-1.428572 4.857143 6.285714q0 1.142857-0.571429 2.571429t-2.285714 2.857143-3.428571 2.571428-4.857143 2.857143-5.142857 2.571429-5.714286 2.857143-5.428572 2.571428q-16 8-38.571428 25.142857T470.857143 396t-28 0.571429q-12-6.285714-36-41.714286-12.571429-17.714286-14.285714-12.571429-0.571429 1.714286-0.571429 5.714286 0 14.285714-8.571429 32.285714T366.571429 412t-12 33.142857 6.571428 36q-13.142857 3.428571-35.714286 51.428572T298.285714 613.142857q-1.142857 10.285714-0.857143 39.428572t-3.142857 33.714285q-4.571429 13.714286-16.571428 1.714286-18.285714-17.714286-20.571429-53.714286-1.142857-16 2.285714-32 2.285714-10.857143-0.571428-10.285714-1.142857 0.571429-2.285714 2.857143-20.571429 37.142857 5.714285 94.857143 2.857143 6.857143 14.285715 16t13.714285 11.428571q11.428571 13.142857 59.428572 51.714286t53.142857 43.714286q9.142857 8.571429 10 21.714285t-8 24.571429-26 13.142857q4.571429 8.571429 16.571428 25.428571t16 30.857143 4 40.285715q26.285714-13.714286 4-52.571429-2.285714-4.571429-6-9.142857t-5.428571-6.857143-1.142857-3.428571q1.714286-2.857143 7.428571-5.428572t11.428572 1.428572q26.285714 29.714286 94.857143 20.571428 76-8.571429 101.142857-49.714286 13.142857-21.714286 19.428571-17.142857 6.857143 3.428571 5.714286 29.714286-0.571429 14.285714-13.142857 52.571429-5.142857 13.142857-3.428572 21.428571t13.714286 8.857143q1.714286-10.857143 8.285714-44t7.714286-51.428572q1.142857-12-3.714286-42t-4.285714-55.428571 13.142857-40.285714q8.571429-10.285714 29.142857-10.285715 0.571429-21.142857 19.714286-30.285714t41.428571-6 34.285715 12.857143zM430.857143 219.428571q1.714286-9.714286-1.428572-17.142857T422.857143 193.714286q-5.142857-1.142857-5.142857 4 1.142857 2.857143 2.857143 3.428571 5.714286 0 4 8.571429-1.714286 11.428571 4.571428 11.428571 1.714286 0 1.714286-1.714286z m239.428571 112.571429q-1.142857-4.571429-3.714285-6.571429t-7.428572-2.857142-8.285714-3.142858q-2.857143-1.714286-5.428572-4.571428t-4-4.571429-3.142857-3.714285-2.285714-2.285715-2.285714 0.857143q-8 9.142857 4 24.857143t22.285714 18q5.142857 0.571429 8.285714-4.571429t2-11.428571zM568.571429 210.285714q0-6.285714-2.857143-11.142857T559.428571 192t-5.142857-1.714286q-3.428571 0-4.571428 1.142857t0 2.285715 2.857143 1.714285q8 2.285714 10.285714 17.714286 0 1.714286 4.571428-1.142857 1.142857-1.142857 1.142858-1.714286z m30.857142-133.142857q0-1.142857-1.428571-2.857143t-5.142857-4-5.428572-3.428571q-8.571429-8.571429-13.714285-8.571429-5.142857 0.571429-6.571429 4.285715t-0.571428 7.428571-0.285715 7.142857q-0.571429 2.285714-3.428571 6t-3.428572 5.142857 1.714286 4.857143q2.285714 1.714286 4.571429 0t6.285714-5.142857 8.571429-5.142857q0.571429-0.571429 5.142857-0.571429t8.571428-1.142857 5.142857-4z m322.857143 766.285714q11.428571 6.857143 17.714286 14t6.857143 13.714286-1.428572 12.857143-8.857142 12.571429-13.428572 11.142857-17.142857 10.571428-18 9.428572-18.285714 8.857143-15.428572 7.428571q-21.714286 10.857143-48.857143 32t-43.142857 36.571429q-9.714286 9.142857-38.857143 11.142857t-50.857142-8.285715q-10.285714-5.142857-16.857143-13.428571T646.285714 987.428571t-12.571428-11.142857-26.857143-5.428571q-25.142857-0.571429-74.285714-0.571429-10.857143 0-32.571429 0.857143t-33.142857 1.428572q-25.142857 0.571429-45.428572 8.571428t-30.571428 17.142857-24.857143 16.285715T335.428571 1021.142857q-16.571429-0.571429-63.428571-17.714286t-83.428571-24.571428q-10.857143-2.285714-29.142858-5.428572t-28.571428-5.142857-22.571429-5.428571-19.142857-8.285714-9.714286-11.142858q-5.714286-13.142857 4-38t10.285715-31.142857q0.571429-9.142857-2.285715-22.857143t-5.714285-24.285714-2.571429-20.857143 6-15.428571q8-6.857143 32.571429-8t34.285714-6.857143q17.142857-10.285714 24-20t6.857143-29.142857q12 41.714286-18.285714 60.571428-18.285714 11.428571-47.428572 8.571429-19.428571-1.714286-24.571428 5.714286-7.428571 8.571429 2.857142 32.571428 1.142857 3.428571 4.571429 10.285715t4.857143 10.285714 2.571428 9.714286 0.571429 12.571428q0 8.571429-9.714286 28t-8 27.428572q1.714286 9.714286 21.142857 14.857142 11.428571 3.428571 48.285715 10.571429T220.571429 969.714286q13.714286 3.428571 42.285714 12.571428t47.142857 13.142857 31.714286 2.285715q24.571429-3.428571 36.857143-16t13.142857-27.428572-4.285715-33.428571-10.857142-29.714286-11.428572-20.857143q-69.142857-108.571429-96.571428-138.285714-38.857143-42.285714-64.571429-22.857143-6.285714 5.142857-8.571429-8.571428-1.714286-9.142857-1.142857-21.714286 0.571429-16.571429 5.714286-29.714286t13.714286-26.857143 12.571428-24q4.571429-12 15.142857-41.142857t16.857143-44.571428 17.142857-34.857143 22.285715-30.857143q62.857143-81.714286 70.857143-111.428572-6.857143-64-9.142858-177.142857-1.142857-51.428571 13.714286-86.571428T433.714286 12Q456 0 493.142857 0q30.285714-0.571429 60.571429 7.714286T604.571429 31.428571q32.571429 24 52.285714 69.428572T673.714286 185.142857q-2.857143 54.285714 17.142857 122.285714 19.428571 64.571429 76 124.571429 31.428571 33.714286 56.857143 93.142857t34 109.142857q4.571429 28 2.857143 48.285715t-6.857143 31.714285-11.428572 12.571429q-5.714286 1.142857-13.428571 10.857143t-15.428572 20.285714-23.142857 19.142857-34.857143 8q-10.285714-0.571429-18-2.857143t-12.857142-7.714285-7.714286-8.857143-6.571429-11.714286-5.142857-11.142857q-12.571429-21.142857-23.428571-17.142857t-16 28 4 55.428571q11.428571 40 0.571428 111.428572-5.714286 37.142857 10.285715 57.428571t41.714285 18.857143 48.571429-20.285714q33.714286-28 51.142857-38T881.142857 914.285714q30.285714-10.285714 44-20.857143t10.571429-19.714285-14.285715-16.285715-29.428571-13.428571q-18.857143-6.285714-28.285714-27.428571t-8.571429-41.428572 8.857143-27.142857q0.571429 17.714286 4.571429 32.285714t8.285714 23.142857 11.714286 16.285715 12 10.857143 12.285714 7.428571 9.428571 5.428571z" p-id="8210" fill="#000000"></path></svg>