<?xml version="1.0" standalone="no"?><!DOCTYPE svg PUBLIC "-//W3C//DTD SVG 1.1//EN" "http://www.w3.org/Graphics/SVG/1.1/DTD/svg11.dtd"><svg t="1612285477299" class="icon" viewBox="0 0 1024 1024" version="1.1" xmlns="http://www.w3.org/2000/svg" p-id="8637" xmlns:xlink="http://www.w3.org/1999/xlink" width="200" height="200"><defs><style type="text/css"></style></defs><path d="M452.992 489.514667l199.936 157.653333-132.352-326.912zM512 0C229.162667 0 0 229.162667 0 512s229.162667 512 512 512 512-229.162667 512-512S794.837333 0 512 0z m247.338667 738.346667a36.309333 36.309333 0 0 1-37.333334 35.413333c-10.069333 0-17.749333-3.84-28.330666-12.501333l-264.106667-213.333334-88.704 221.994667H264.149333L488.021333 232.106667a33.706667 33.706667 0 0 1 32.597334-21.589334 32.256 32.256 0 0 1 31.658666 21.589334l203.690667 490.410666c1.92 4.736 3.413333 9.984 3.413333 14.848l-0.042666 0.981334z" p-id="8638"></path></svg>